<?xml version="1.0" encoding="UTF-8" ?>
<!DOCTYPE svg PUBLIC "-//W3C//DTD SVG 1.1//EN" "http://www.w3.org/Graphics/SVG/1.1/DTD/svg11.dtd">
<svg width="250pt" height="250pt" viewBox="0 0 250 250" version="1.1" xmlns="http://www.w3.org/2000/svg">
<g id="#239f40ff">
<path fill="#239f40" opacity="1.00" d=" M 89.37 5.16 C 117.24 -3.14 148.03 -1.38 174.70 10.27 C 201.58 21.83 224.07 43.21 237.02 69.46 C 232.21 69.43 227.40 69.44 222.59 69.45 C 222.60 70.07 222.63 71.31 222.65 71.94 C 227.83 71.94 233.01 71.96 238.20 71.91 C 238.37 72.28 238.71 73.02 238.88 73.39 C 237.31 73.39 235.74 73.39 234.17 73.39 L 234.18 75.39 C 235.80 75.79 237.44 76.20 238.98 76.88 C 236.93 77.11 234.87 77.24 232.81 77.34 C 232.81 76.01 232.82 74.69 232.83 73.37 C 229.43 73.36 226.03 73.36 222.63 73.38 C 222.62 75.47 222.61 77.55 222.60 79.65 C 223.16 79.69 224.30 79.77 224.86 79.82 C 224.98 78.48 225.10 77.14 225.22 75.80 C 226.92 75.80 228.62 75.80 230.33 75.80 C 230.33 77.10 230.34 78.41 230.35 79.72 C 233.75 79.72 237.16 79.80 240.56 79.65 L 240.81 77.99 C 241.17 78.83 241.90 80.51 242.27 81.35 C 242.18 81.90 241.99 82.98 241.90 83.52 C 240.73 82.72 239.80 81.22 238.17 81.53 C 233.09 81.42 228.01 81.59 222.93 81.52 C 222.62 82.36 222.31 83.20 222.01 84.05 C 221.67 83.41 221.01 82.13 220.68 81.49 C 215.09 81.71 209.47 81.17 203.90 81.75 C 203.48 82.21 202.64 83.14 202.22 83.61 C 202.04 83.08 201.69 82.01 201.51 81.48 C 195.80 81.55 190.10 81.55 184.39 81.47 C 183.93 82.33 183.46 83.18 183.00 84.04 C 182.78 83.41 182.36 82.15 182.15 81.52 C 176.44 81.68 170.71 81.19 165.03 81.74 C 164.71 82.25 164.06 83.28 163.74 83.79 C 163.35 83.01 162.95 82.24 162.56 81.47 C 157.00 81.73 151.40 81.16 145.86 81.75 C 145.43 82.21 144.58 83.13 144.15 83.60 C 143.97 83.07 143.63 82.01 143.45 81.48 C 137.70 81.56 131.96 81.52 126.21 81.51 C 125.90 82.13 125.30 83.37 125.00 83.99 C 124.70 83.37 124.10 82.13 123.80 81.51 C 118.09 81.52 112.39 81.55 106.69 81.49 C 106.49 82.02 106.08 83.07 105.88 83.59 C 105.47 83.12 104.66 82.19 104.25 81.73 C 98.67 81.16 93.02 81.74 87.42 81.46 C 87.15 82.04 86.63 83.18 86.37 83.76 C 86.01 83.25 85.30 82.24 84.94 81.74 C 79.39 81.36 73.74 81.32 68.19 81.76 C 67.83 82.27 67.11 83.28 66.75 83.79 C 66.40 83.02 66.05 82.25 65.69 81.48 C 60.09 81.72 54.45 81.17 48.87 81.75 C 48.45 82.21 47.60 83.14 47.18 83.60 C 47.00 83.07 46.64 82.01 46.46 81.48 C 40.77 81.55 35.09 81.55 29.40 81.47 C 28.93 82.32 28.45 83.16 27.98 84.01 C 27.68 83.18 27.37 82.35 27.07 81.52 C 21.41 81.71 15.69 81.16 10.06 81.73 C 9.64 82.22 8.81 83.19 8.39 83.67 C 8.27 83.06 8.02 81.83 7.89 81.21 C 8.52 79.44 9.23 77.70 9.96 75.97 C 9.77 76.90 9.38 78.76 9.18 79.69 C 11.40 79.71 13.61 79.71 15.83 79.70 L 15.83 77.62 C 14.23 77.26 12.47 77.18 11.15 76.07 C 13.16 75.89 15.17 75.80 17.19 75.74 C 17.19 77.07 17.19 78.39 17.19 79.72 C 20.59 79.73 24.00 79.72 27.40 79.69 C 27.38 76.26 27.39 72.84 27.39 69.42 C 26.77 69.44 25.54 69.46 24.92 69.48 C 24.93 72.06 24.94 74.64 24.95 77.22 L 23.52 77.26 C 23.52 74.66 23.52 72.07 23.53 69.47 C 22.92 69.45 21.70 69.43 21.09 69.41 C 21.10 72.02 21.10 74.62 21.10 77.23 L 19.64 77.24 C 19.64 74.64 19.65 72.04 19.67 69.44 C 19.04 69.44 17.80 69.44 17.18 69.44 C 17.19 70.74 17.20 72.05 17.21 73.35 C 15.17 73.35 13.14 73.36 11.11 73.37 L 11.68 72.22 C 13.25 71.99 14.82 71.78 16.39 71.58 C 15.49 70.47 14.53 69.40 13.66 68.27 C 28.77 38.01 56.93 14.66 89.37 5.16 M 28.96 69.58 C 28.89 70.17 28.74 71.34 28.67 71.93 C 37.33 71.96 45.98 72.05 54.64 71.84 C 54.60 71.24 54.52 70.05 54.48 69.45 C 45.98 69.54 37.46 69.23 28.96 69.58 M 67.52 69.46 C 67.54 70.08 67.57 71.32 67.59 71.94 C 76.20 71.90 84.81 72.10 93.42 71.91 C 93.35 71.33 93.23 70.17 93.16 69.59 C 84.63 69.22 76.07 69.53 67.52 69.46 M 102.44 69.47 C 102.46 72.06 102.47 74.66 102.48 77.26 L 101.05 77.22 C 101.06 74.63 101.07 72.05 101.07 69.47 C 100.46 69.46 99.23 69.44 98.61 69.43 C 98.61 72.23 98.65 75.03 98.40 77.81 C 95.97 75.86 97.61 72.14 97.15 69.44 C 96.55 69.44 95.34 69.44 94.74 69.44 C 94.73 70.41 94.72 72.36 94.71 73.34 C 92.13 73.36 89.54 73.37 86.95 73.39 C 86.94 75.49 86.93 77.60 86.93 79.70 C 89.06 79.71 91.18 79.72 93.31 79.71 L 93.25 77.27 C 91.98 77.26 90.72 77.25 89.46 77.25 C 89.44 76.88 89.41 76.16 89.39 75.80 C 91.14 75.80 92.89 75.79 94.64 75.79 C 94.68 77.10 94.72 78.41 94.77 79.73 C 98.15 79.72 101.53 79.73 104.91 79.71 C 104.88 76.27 104.89 72.84 104.87 69.41 C 104.26 69.42 103.05 69.45 102.44 69.47 M 106.31 69.45 C 106.30 70.06 106.28 71.27 106.26 71.88 C 114.87 72.02 123.49 72.01 132.10 71.89 C 132.05 71.27 131.95 70.03 131.90 69.41 C 123.37 69.48 114.84 69.41 106.31 69.45 M 133.45 69.45 C 133.45 70.75 133.46 72.05 133.46 73.35 C 130.88 73.36 128.31 73.36 125.73 73.37 C 125.72 75.49 125.72 77.61 125.73 79.73 C 127.84 79.72 129.96 79.71 132.08 79.70 C 132.05 79.10 132.01 77.89 131.98 77.28 C 130.72 77.27 129.46 77.25 128.20 77.24 L 128.17 75.81 C 129.93 75.80 131.68 75.80 133.44 75.79 C 133.43 77.08 133.42 78.36 133.41 79.65 C 136.86 79.74 140.31 79.74 143.77 79.71 C 143.75 76.28 143.75 72.86 143.77 69.43 C 143.14 69.44 141.88 69.45 141.25 69.46 C 141.27 72.06 141.28 74.66 141.29 77.27 L 139.78 77.24 C 139.78 74.64 139.79 72.04 139.81 69.44 C 139.19 69.44 137.93 69.45 137.31 69.45 C 137.32 72.04 137.33 74.63 137.34 77.21 L 135.88 77.25 C 135.88 74.65 135.89 72.04 135.89 69.44 C 135.28 69.44 134.06 69.45 133.45 69.45 M 145.18 69.45 C 145.15 70.05 145.10 71.26 145.07 71.87 C 153.69 72.03 162.30 71.98 170.91 71.87 C 170.89 71.26 170.83 70.05 170.80 69.44 C 162.26 69.44 153.72 69.43 145.18 69.45 M 172.21 69.45 C 172.22 70.75 172.22 72.04 172.23 73.34 C 169.64 73.36 167.05 73.36 164.45 73.38 C 164.45 75.49 164.45 77.61 164.45 79.72 C 166.59 79.72 168.73 79.71 170.88 79.69 C 170.87 79.10 170.85 77.91 170.85 77.31 C 169.51 77.28 168.17 77.24 166.83 77.20 L 166.93 75.80 C 168.69 75.80 170.45 75.80 172.21 75.80 C 172.21 77.10 172.22 78.41 172.22 79.71 C 175.62 79.73 179.03 79.73 182.43 79.71 C 182.42 76.28 182.43 72.85 182.44 69.42 C 181.82 69.43 180.59 69.47 179.98 69.48 C 180.04 72.06 180.06 74.65 180.07 77.23 L 178.54 77.24 C 178.55 74.65 178.55 72.06 178.57 69.47 C 177.96 69.46 176.75 69.42 176.14 69.41 C 176.13 72.02 176.13 74.63 176.13 77.25 L 174.68 77.25 C 174.69 74.65 174.70 72.05 174.71 69.45 C 174.08 69.45 172.84 69.45 172.21 69.45 M 183.92 69.43 C 183.90 70.06 183.86 71.31 183.84 71.94 C 192.45 71.84 201.06 72.15 209.67 71.84 C 209.63 71.24 209.55 70.04 209.51 69.44 C 200.98 69.43 192.45 69.46 183.92 69.43 M 55.93 69.48 C 55.93 70.44 55.92 72.37 55.91 73.33 C 53.33 73.35 50.75 73.36 48.17 73.38 C 48.18 75.50 48.19 77.61 48.19 79.73 C 50.32 79.72 52.45 79.71 54.58 79.69 L 54.51 77.27 C 53.24 77.27 51.97 77.26 50.69 77.25 C 50.70 76.88 50.70 76.14 50.70 75.76 C 52.42 75.78 54.13 75.80 55.85 75.81 C 55.88 76.78 55.94 78.73 55.97 79.70 C 59.36 79.73 62.75 79.73 66.14 79.72 C 66.13 76.29 66.16 72.87 66.15 69.45 C 65.54 69.44 64.32 69.44 63.70 69.44 C 63.70 72.03 63.71 74.63 63.72 77.23 C 63.35 77.23 62.60 77.23 62.23 77.24 C 62.24 74.64 62.25 72.04 62.25 69.44 C 61.64 69.44 60.43 69.44 59.82 69.44 C 59.41 72.17 60.94 75.77 58.63 77.85 C 58.31 75.05 58.35 72.23 58.37 69.42 C 57.76 69.44 56.54 69.46 55.93 69.48 M 210.98 69.48 C 210.96 70.44 210.93 72.37 210.92 73.34 C 208.35 73.36 205.79 73.36 203.22 73.38 C 203.22 75.49 203.22 77.60 203.22 79.72 C 205.35 79.72 207.48 79.71 209.61 79.70 C 209.60 79.09 209.58 77.89 209.57 77.29 C 208.28 77.27 206.98 77.26 205.69 77.24 L 205.69 75.80 C 207.41 75.80 209.13 75.80 210.86 75.80 C 210.92 77.10 210.99 78.41 211.06 79.71 C 214.43 79.73 217.80 79.72 221.17 79.72 C 221.17 76.30 221.19 72.87 221.18 69.44 C 220.57 69.44 219.36 69.44 218.75 69.44 C 218.75 72.04 218.75 74.64 218.77 77.23 C 218.40 77.23 217.65 77.23 217.28 77.23 C 217.29 74.63 217.30 72.03 217.30 69.44 C 216.69 69.44 215.46 69.44 214.85 69.44 C 214.87 72.15 214.89 74.87 214.83 77.58 C 211.91 76.34 214.07 71.90 213.44 69.43 C 212.83 69.44 211.59 69.46 210.98 69.48 M 28.88 73.35 C 28.84 75.47 28.82 77.58 28.80 79.70 C 29.40 79.70 30.61 79.71 31.21 79.72 C 31.25 78.41 31.29 77.10 31.32 75.79 C 33.06 75.79 34.79 75.80 36.52 75.80 C 36.56 77.11 36.60 78.43 36.64 79.74 C 40.02 79.72 43.40 79.72 46.78 79.71 C 46.78 77.60 46.78 75.48 46.78 73.37 C 44.66 73.37 42.54 73.37 40.43 73.38 C 40.42 73.97 40.39 75.16 40.38 75.75 C 41.70 75.78 43.02 75.80 44.33 75.82 L 44.28 77.27 C 42.56 77.26 40.84 77.25 39.12 77.24 C 39.07 75.95 39.03 74.66 38.99 73.38 C 35.62 73.36 32.25 73.36 28.88 73.35 M 67.56 73.39 C 67.57 75.50 67.57 77.61 67.57 79.73 C 68.18 79.71 69.40 79.68 70.01 79.66 C 70.03 78.69 70.09 76.77 70.11 75.80 C 71.84 75.80 73.57 75.80 75.29 75.80 C 75.29 77.10 75.29 78.41 75.29 79.72 C 78.71 79.73 82.13 79.73 85.55 79.71 C 85.54 77.59 85.54 75.47 85.54 73.35 C 83.38 73.36 81.21 73.38 79.05 73.42 C 79.09 74.01 79.17 75.19 79.21 75.78 C 80.51 75.79 81.82 75.80 83.13 75.82 L 83.11 77.24 C 81.33 77.24 79.55 77.25 77.77 77.25 C 77.77 75.96 77.78 74.67 77.79 73.38 C 74.38 73.35 70.97 73.35 67.56 73.39 M 106.31 73.37 C 106.32 75.49 106.32 77.60 106.33 79.72 C 106.94 79.72 108.18 79.71 108.79 79.71 C 108.79 78.41 108.79 77.10 108.79 75.80 C 110.57 75.80 112.34 75.81 114.12 75.82 C 114.11 77.11 114.10 78.41 114.09 79.71 C 117.47 79.72 120.84 79.72 124.22 79.75 C 124.25 77.62 124.27 75.49 124.29 73.36 C 122.18 73.36 120.06 73.37 117.95 73.38 C 117.95 73.98 117.94 75.17 117.94 75.76 C 119.21 75.78 120.49 75.80 121.77 75.82 L 121.86 77.24 C 120.09 77.25 118.32 77.25 116.56 77.25 C 116.55 75.95 116.54 74.66 116.54 73.37 C 113.13 73.36 109.72 73.35 106.31 73.37 M 145.16 73.38 C 145.17 75.49 145.17 77.60 145.17 79.71 C 145.76 79.71 146.94 79.72 147.54 79.72 C 147.54 78.42 147.55 77.11 147.57 75.81 C 149.30 75.80 151.02 75.79 152.76 75.78 C 152.80 77.09 152.84 78.41 152.89 79.72 C 156.28 79.73 159.68 79.73 163.08 79.70 C 163.06 77.58 163.05 75.47 163.03 73.35 C 160.86 73.85 155.92 71.79 156.54 75.75 C 157.89 75.78 159.25 75.80 160.60 75.81 C 160.59 76.17 160.56 76.90 160.55 77.26 C 158.80 77.25 157.05 77.25 155.31 77.25 C 155.29 75.97 155.29 74.69 155.28 73.41 C 151.91 73.35 148.53 73.35 145.16 73.38 M 183.87 73.37 C 183.87 75.49 183.86 77.61 183.85 79.74 C 184.67 79.71 185.49 79.68 186.31 79.66 C 186.31 78.37 186.33 77.08 186.34 75.79 C 188.09 75.79 189.83 75.79 191.59 75.79 C 191.58 77.08 191.57 78.37 191.57 79.65 C 194.98 79.74 198.40 79.74 201.82 79.71 C 201.81 77.60 201.82 75.48 201.83 73.37 C 199.71 73.36 197.60 73.37 195.49 73.38 C 195.47 73.97 195.44 75.15 195.43 75.74 C 196.75 75.77 198.07 75.80 199.40 75.82 L 199.29 77.26 C 197.58 77.25 195.87 77.25 194.16 77.24 C 194.09 75.94 194.02 74.65 193.96 73.36 C 190.60 73.36 187.23 73.36 183.87 73.37 M 33.08 77.37 C 31.56 78.39 33.33 80.79 34.76 79.65 C 36.31 78.64 34.51 76.17 33.08 77.37 M 71.50 77.31 C 71.50 77.90 71.50 79.09 71.49 79.68 C 72.09 79.70 73.27 79.73 73.87 79.74 C 73.87 79.11 73.87 77.85 73.87 77.22 C 73.28 77.24 72.09 77.29 71.50 77.31 M 110.23 77.22 C 110.21 77.84 110.17 79.06 110.14 79.68 C 110.78 79.69 112.05 79.70 112.69 79.71 C 112.70 79.12 112.72 77.93 112.73 77.33 C 112.10 77.31 110.85 77.25 110.23 77.22 M 149.38 77.32 C 147.86 78.32 149.56 80.80 151.03 79.66 C 152.56 78.67 150.83 76.21 149.38 77.32 M 188.15 77.32 C 186.62 78.29 188.28 80.80 189.76 79.69 C 191.28 78.72 189.63 76.18 188.15 77.32 M 226.47 77.31 C 226.46 77.89 226.44 79.07 226.43 79.66 C 227.04 79.69 228.26 79.74 228.88 79.77 C 228.88 79.13 228.90 77.85 228.91 77.22 C 228.30 77.24 227.08 77.28 226.47 77.31 Z" />
</g>
<g id="#ffffffff">
<path fill="#ffffff" opacity="1.00" d=" M 11.68 72.22 C 12.34 70.90 12.95 69.57 13.66 68.27 C 14.53 69.40 15.49 70.47 16.39 71.58 C 14.82 71.78 13.25 71.99 11.68 72.22 Z" />
<path fill="#ffffff" opacity="1.00" d=" M 17.18 69.44 C 17.80 69.44 19.04 69.44 19.67 69.44 C 19.65 72.04 19.64 74.64 19.64 77.24 L 21.10 77.23 C 21.10 74.62 21.10 72.02 21.09 69.41 C 21.70 69.43 22.92 69.45 23.53 69.47 C 23.52 72.07 23.52 74.66 23.52 77.26 L 24.95 77.22 C 24.94 74.64 24.93 72.06 24.92 69.48 C 25.54 69.46 26.77 69.44 27.39 69.42 C 27.39 72.84 27.38 76.26 27.40 79.69 C 24.00 79.72 20.59 79.73 17.19 79.72 C 17.19 78.39 17.19 77.07 17.19 75.74 C 15.17 75.80 13.16 75.89 11.15 76.07 C 12.47 77.18 14.23 77.26 15.83 77.62 L 15.83 79.70 C 13.61 79.71 11.40 79.71 9.18 79.69 C 9.38 78.76 9.77 76.90 9.96 75.97 C 10.33 75.09 10.70 74.22 11.11 73.37 C 13.14 73.36 15.17 73.35 17.21 73.35 C 17.20 72.05 17.19 70.74 17.18 69.44 Z" />
<path fill="#ffffff" opacity="1.00" d=" M 28.96 69.58 C 37.46 69.23 45.98 69.54 54.48 69.45 C 54.52 70.05 54.60 71.24 54.64 71.84 C 45.98 72.05 37.33 71.96 28.67 71.93 C 28.74 71.34 28.89 70.17 28.96 69.58 Z" />
<path fill="#ffffff" opacity="1.00" d=" M 67.52 69.46 C 76.07 69.53 84.63 69.22 93.16 69.59 C 93.23 70.17 93.35 71.33 93.42 71.91 C 84.81 72.10 76.20 71.90 67.59 71.94 C 67.57 71.32 67.54 70.08 67.52 69.46 Z" />
<path fill="#ffffff" opacity="1.00" d=" M 102.44 69.47 C 103.05 69.45 104.26 69.42 104.87 69.41 C 104.89 72.84 104.88 76.27 104.91 79.71 C 101.53 79.73 98.15 79.72 94.77 79.73 C 94.72 78.41 94.68 77.10 94.64 75.79 C 92.89 75.79 91.14 75.80 89.39 75.80 C 89.41 76.16 89.44 76.88 89.46 77.25 C 90.72 77.25 91.98 77.26 93.25 77.27 L 93.31 79.71 C 91.18 79.72 89.06 79.71 86.93 79.70 C 86.93 77.60 86.94 75.49 86.95 73.39 C 89.54 73.37 92.13 73.36 94.71 73.34 C 94.72 72.36 94.73 70.41 94.74 69.44 C 95.34 69.44 96.55 69.44 97.15 69.44 C 97.61 72.14 95.97 75.86 98.40 77.81 C 98.65 75.03 98.61 72.23 98.61 69.43 C 99.23 69.44 100.46 69.46 101.07 69.47 C 101.07 72.05 101.06 74.63 101.05 77.22 L 102.48 77.26 C 102.47 74.66 102.46 72.06 102.44 69.47 Z" />
<path fill="#ffffff" opacity="1.00" d=" M 106.31 69.45 C 114.84 69.41 123.37 69.48 131.90 69.41 C 131.95 70.03 132.05 71.27 132.10 71.89 C 123.49 72.01 114.87 72.02 106.26 71.88 C 106.28 71.27 106.30 70.06 106.31 69.45 Z" />
<path fill="#ffffff" opacity="1.00" d=" M 133.45 69.45 C 134.06 69.45 135.28 69.44 135.89 69.44 C 135.89 72.04 135.88 74.65 135.88 77.25 L 137.34 77.21 C 137.33 74.63 137.32 72.04 137.31 69.45 C 137.93 69.45 139.19 69.44 139.81 69.44 C 139.79 72.04 139.78 74.64 139.78 77.24 L 141.29 77.27 C 141.28 74.66 141.27 72.06 141.25 69.46 C 141.88 69.45 143.14 69.44 143.77 69.43 C 143.75 72.86 143.75 76.28 143.77 79.71 C 140.31 79.74 136.86 79.74 133.41 79.65 C 133.42 78.36 133.43 77.08 133.44 75.79 C 131.68 75.80 129.93 75.80 128.17 75.81 L 128.20 77.24 C 129.46 77.25 130.72 77.27 131.98 77.28 C 132.01 77.89 132.05 79.10 132.08 79.70 C 129.96 79.71 127.84 79.72 125.73 79.73 C 125.72 77.61 125.72 75.49 125.73 73.37 C 128.31 73.36 130.88 73.36 133.46 73.35 C 133.46 72.05 133.45 70.75 133.45 69.45 Z" />
<path fill="#ffffff" opacity="1.00" d=" M 145.18 69.45 C 153.72 69.43 162.26 69.44 170.80 69.44 C 170.83 70.05 170.89 71.26 170.91 71.87 C 162.30 71.98 153.69 72.03 145.07 71.87 C 145.10 71.26 145.15 70.05 145.18 69.45 Z" />
<path fill="#ffffff" opacity="1.00" d=" M 172.21 69.45 C 172.84 69.45 174.08 69.45 174.71 69.45 C 174.70 72.05 174.69 74.65 174.68 77.25 L 176.13 77.25 C 176.13 74.63 176.13 72.02 176.14 69.41 C 176.75 69.42 177.96 69.46 178.57 69.47 C 178.55 72.06 178.55 74.65 178.54 77.24 L 180.07 77.23 C 180.06 74.65 180.04 72.06 179.98 69.48 C 180.59 69.47 181.82 69.43 182.44 69.42 C 182.43 72.85 182.42 76.28 182.43 79.71 C 179.03 79.73 175.62 79.73 172.22 79.71 C 172.22 78.41 172.21 77.10 172.21 75.80 C 170.45 75.80 168.69 75.80 166.93 75.80 L 166.83 77.20 C 168.17 77.24 169.51 77.28 170.85 77.31 C 170.85 77.91 170.87 79.10 170.88 79.69 C 168.73 79.71 166.59 79.72 164.45 79.72 C 164.45 77.61 164.45 75.49 164.45 73.38 C 167.05 73.36 169.64 73.36 172.23 73.34 C 172.22 72.04 172.22 70.75 172.21 69.45 Z" />
<path fill="#ffffff" opacity="1.00" d=" M 183.92 69.43 C 192.45 69.46 200.98 69.43 209.51 69.44 C 209.55 70.04 209.63 71.24 209.67 71.84 C 201.06 72.15 192.45 71.84 183.84 71.94 C 183.86 71.31 183.90 70.06 183.92 69.43 Z" />
<path fill="#ffffff" opacity="1.00" d=" M 55.93 69.48 C 56.54 69.46 57.76 69.44 58.37 69.42 C 58.35 72.23 58.31 75.05 58.63 77.85 C 60.94 75.77 59.41 72.17 59.82 69.44 C 60.43 69.44 61.64 69.44 62.25 69.44 C 62.25 72.04 62.24 74.64 62.23 77.24 C 62.60 77.23 63.35 77.23 63.72 77.23 C 63.71 74.63 63.70 72.03 63.70 69.44 C 64.32 69.44 65.54 69.44 66.15 69.45 C 66.16 72.87 66.13 76.29 66.14 79.72 C 62.75 79.73 59.36 79.73 55.97 79.70 C 55.94 78.73 55.88 76.78 55.85 75.81 C 54.13 75.80 52.42 75.78 50.70 75.76 C 50.70 76.14 50.70 76.88 50.69 77.25 C 51.97 77.26 53.24 77.27 54.51 77.27 L 54.58 79.69 C 52.45 79.71 50.32 79.72 48.19 79.73 C 48.19 77.61 48.18 75.50 48.17 73.38 C 50.75 73.36 53.33 73.35 55.91 73.33 C 55.92 72.37 55.93 70.44 55.93 69.48 Z" />
<path fill="#ffffff" opacity="1.00" d=" M 210.98 69.48 C 211.59 69.46 212.83 69.44 213.44 69.43 C 214.07 71.90 211.91 76.34 214.83 77.58 C 214.89 74.87 214.87 72.15 214.85 69.44 C 215.46 69.44 216.69 69.44 217.30 69.44 C 217.30 72.03 217.29 74.63 217.28 77.23 C 217.65 77.23 218.40 77.23 218.77 77.23 C 218.75 74.64 218.75 72.04 218.75 69.44 C 219.36 69.44 220.57 69.44 221.18 69.44 C 221.19 72.87 221.17 76.30 221.17 79.72 C 217.80 79.72 214.43 79.73 211.06 79.71 C 210.99 78.41 210.92 77.10 210.86 75.80 C 209.13 75.80 207.41 75.80 205.69 75.80 L 205.69 77.24 C 206.98 77.26 208.28 77.27 209.57 77.29 C 209.58 77.89 209.60 79.09 209.61 79.70 C 207.48 79.71 205.35 79.72 203.22 79.72 C 203.22 77.60 203.22 75.49 203.22 73.38 C 205.79 73.36 208.35 73.36 210.92 73.34 C 210.93 72.37 210.96 70.44 210.98 69.48 Z" />
<path fill="#ffffff" opacity="1.00" d=" M 222.59 69.45 C 227.40 69.44 232.21 69.43 237.02 69.46 C 237.31 70.07 237.90 71.30 238.20 71.91 C 233.01 71.96 227.83 71.94 222.65 71.94 C 222.63 71.31 222.60 70.07 222.59 69.45 Z" />
<path fill="#ffffff" opacity="1.00" d=" M 28.88 73.35 C 32.25 73.36 35.62 73.36 38.99 73.38 C 39.03 74.66 39.07 75.95 39.12 77.24 C 40.84 77.25 42.56 77.26 44.28 77.27 L 44.33 75.82 C 43.02 75.80 41.70 75.78 40.38 75.75 C 40.39 75.16 40.42 73.97 40.43 73.38 C 42.54 73.37 44.66 73.37 46.78 73.37 C 46.78 75.48 46.78 77.60 46.78 79.71 C 43.40 79.72 40.02 79.72 36.64 79.74 C 36.60 78.43 36.56 77.11 36.52 75.80 C 34.79 75.80 33.06 75.79 31.32 75.79 C 31.29 77.10 31.25 78.41 31.21 79.72 C 30.61 79.71 29.40 79.70 28.80 79.70 C 28.82 77.58 28.84 75.47 28.88 73.35 Z" />
<path fill="#ffffff" opacity="1.00" d=" M 67.56 73.39 C 70.97 73.35 74.38 73.35 77.79 73.38 C 77.78 74.67 77.77 75.96 77.77 77.25 C 79.55 77.25 81.33 77.24 83.11 77.24 L 83.13 75.82 C 81.82 75.80 80.51 75.79 79.21 75.78 C 79.17 75.19 79.09 74.01 79.05 73.42 C 81.21 73.38 83.38 73.36 85.54 73.35 C 85.54 75.47 85.54 77.59 85.55 79.71 C 82.13 79.73 78.71 79.73 75.29 79.72 C 75.29 78.41 75.29 77.10 75.29 75.80 C 73.57 75.80 71.84 75.80 70.11 75.80 C 70.09 76.77 70.03 78.69 70.01 79.66 C 69.40 79.68 68.18 79.71 67.57 79.73 C 67.57 77.61 67.57 75.50 67.56 73.39 Z" />
<path fill="#ffffff" opacity="1.00" d=" M 106.31 73.37 C 109.72 73.35 113.13 73.36 116.54 73.37 C 116.54 74.66 116.55 75.95 116.56 77.25 C 118.32 77.25 120.09 77.25 121.86 77.24 L 121.77 75.82 C 120.49 75.80 119.21 75.78 117.94 75.76 C 117.94 75.17 117.95 73.98 117.95 73.38 C 120.06 73.37 122.18 73.36 124.29 73.36 C 124.27 75.49 124.25 77.62 124.22 79.75 C 120.84 79.72 117.47 79.72 114.09 79.71 C 114.10 78.41 114.11 77.11 114.12 75.82 C 112.34 75.81 110.57 75.80 108.79 75.80 C 108.79 77.10 108.79 78.41 108.79 79.71 C 108.18 79.71 106.94 79.72 106.33 79.72 C 106.32 77.60 106.32 75.49 106.31 73.37 Z" />
<path fill="#ffffff" opacity="1.00" d=" M 145.16 73.38 C 148.53 73.35 151.91 73.35 155.28 73.41 C 155.29 74.69 155.29 75.97 155.31 77.25 C 157.05 77.25 158.80 77.25 160.55 77.26 C 160.56 76.90 160.59 76.17 160.60 75.81 C 159.25 75.80 157.89 75.78 156.54 75.75 C 155.92 71.79 160.86 73.85 163.03 73.35 C 163.05 75.47 163.06 77.58 163.08 79.70 C 159.68 79.73 156.28 79.73 152.89 79.72 C 152.84 78.41 152.80 77.09 152.76 75.78 C 151.02 75.79 149.30 75.80 147.57 75.81 C 147.55 77.11 147.54 78.42 147.54 79.72 C 146.94 79.72 145.76 79.71 145.17 79.71 C 145.17 77.60 145.17 75.49 145.16 73.38 Z" />
<path fill="#ffffff" opacity="1.00" d=" M 183.87 73.37 C 187.23 73.36 190.60 73.36 193.96 73.36 C 194.02 74.65 194.09 75.94 194.16 77.24 C 195.87 77.25 197.58 77.25 199.29 77.26 L 199.40 75.82 C 198.07 75.80 196.75 75.77 195.43 75.74 C 195.44 75.15 195.47 73.97 195.49 73.38 C 197.60 73.37 199.71 73.36 201.83 73.37 C 201.82 75.48 201.81 77.60 201.82 79.71 C 198.40 79.74 194.98 79.74 191.57 79.65 C 191.57 78.37 191.58 77.08 191.59 75.79 C 189.83 75.79 188.09 75.79 186.34 75.79 C 186.33 77.08 186.31 78.37 186.31 79.66 C 185.49 79.68 184.67 79.71 183.85 79.74 C 183.86 77.61 183.87 75.49 183.87 73.37 Z" />
<path fill="#ffffff" opacity="1.00" d=" M 222.63 73.38 C 226.03 73.36 229.43 73.36 232.83 73.37 C 232.82 74.69 232.81 76.01 232.81 77.34 C 234.87 77.24 236.93 77.11 238.98 76.88 C 237.44 76.20 235.80 75.79 234.18 75.39 L 234.17 73.39 C 235.74 73.39 237.31 73.39 238.88 73.39 C 239.56 74.91 240.21 76.44 240.81 77.99 L 240.56 79.65 C 237.16 79.80 233.75 79.72 230.35 79.72 C 230.34 78.41 230.33 77.10 230.33 75.80 C 228.62 75.80 226.92 75.80 225.22 75.80 C 225.10 77.14 224.98 78.48 224.86 79.82 C 224.30 79.77 223.16 79.69 222.60 79.65 C 222.61 77.55 222.62 75.47 222.63 73.38 Z" />
<path fill="#ffffff" opacity="1.00" d=" M 33.08 77.37 C 34.51 76.17 36.31 78.64 34.76 79.65 C 33.33 80.79 31.56 78.39 33.08 77.37 Z" />
<path fill="#ffffff" opacity="1.00" d=" M 71.50 77.31 C 72.09 77.29 73.28 77.24 73.87 77.22 C 73.87 77.85 73.87 79.11 73.87 79.74 C 73.27 79.73 72.09 79.70 71.49 79.68 C 71.50 79.09 71.50 77.90 71.50 77.31 Z" />
<path fill="#ffffff" opacity="1.00" d=" M 110.23 77.22 C 110.85 77.25 112.10 77.31 112.73 77.33 C 112.72 77.93 112.70 79.12 112.69 79.71 C 112.05 79.70 110.78 79.69 110.14 79.68 C 110.17 79.06 110.21 77.84 110.23 77.22 Z" />
<path fill="#ffffff" opacity="1.00" d=" M 149.38 77.32 C 150.83 76.21 152.56 78.67 151.03 79.66 C 149.56 80.80 147.86 78.32 149.38 77.32 Z" />
<path fill="#ffffff" opacity="1.00" d=" M 188.15 77.32 C 189.63 76.18 191.28 78.72 189.76 79.69 C 188.28 80.80 186.62 78.29 188.15 77.32 Z" />
<path fill="#ffffff" opacity="1.00" d=" M 226.47 77.31 C 227.08 77.28 228.30 77.24 228.91 77.22 C 228.90 77.85 228.88 79.13 228.88 79.77 C 228.26 79.74 227.04 79.69 226.43 79.66 C 226.44 79.07 226.46 77.89 226.47 77.31 Z" />
<path fill="#ffffff" opacity="1.00" d=" M 7.91 168.86 C -2.61 140.92 -2.63 109.16 7.89 81.21 C 8.02 81.83 8.27 83.06 8.39 83.67 C 8.81 83.19 9.64 82.22 10.06 81.73 C 15.69 81.16 21.41 81.71 27.07 81.52 C 27.37 82.35 27.68 83.18 27.98 84.01 C 28.45 83.16 28.93 82.32 29.40 81.47 C 35.09 81.55 40.77 81.55 46.46 81.48 C 46.64 82.01 47.00 83.07 47.18 83.60 C 47.60 83.14 48.45 82.21 48.87 81.75 C 54.45 81.17 60.09 81.72 65.69 81.48 C 66.05 82.25 66.40 83.02 66.75 83.79 C 67.11 83.28 67.83 82.27 68.19 81.76 C 73.74 81.32 79.39 81.36 84.94 81.74 C 85.30 82.24 86.01 83.25 86.37 83.76 C 86.63 83.18 87.15 82.04 87.42 81.46 C 93.02 81.74 98.67 81.16 104.25 81.73 C 104.66 82.19 105.47 83.12 105.88 83.59 C 106.08 83.07 106.49 82.02 106.69 81.49 C 112.39 81.55 118.09 81.52 123.80 81.51 C 124.10 82.13 124.70 83.37 125.00 83.99 C 125.30 83.37 125.90 82.13 126.21 81.51 C 131.96 81.52 137.70 81.56 143.45 81.48 C 143.63 82.01 143.97 83.07 144.15 83.60 C 144.58 83.13 145.43 82.21 145.86 81.75 C 151.40 81.16 157.00 81.73 162.56 81.47 C 162.95 82.24 163.35 83.01 163.74 83.79 C 164.06 83.28 164.71 82.25 165.03 81.74 C 170.71 81.19 176.44 81.68 182.15 81.52 C 182.36 82.15 182.78 83.41 183.00 84.04 C 183.46 83.18 183.93 82.33 184.39 81.47 C 190.10 81.55 195.80 81.55 201.51 81.48 C 201.69 82.01 202.04 83.08 202.22 83.61 C 202.64 83.14 203.48 82.21 203.90 81.75 C 209.47 81.17 215.09 81.71 220.68 81.49 C 221.01 82.13 221.67 83.41 222.01 84.05 C 222.31 83.20 222.62 82.36 222.93 81.52 C 228.01 81.59 233.09 81.42 238.17 81.53 C 239.80 81.22 240.73 82.72 241.90 83.52 C 241.99 82.98 242.18 81.90 242.27 81.35 C 242.38 81.49 242.60 81.75 242.71 81.88 C 243.67 86.10 245.22 90.16 246.24 94.37 C 252.32 118.81 251.03 145.13 242.14 168.73 C 241.99 168.09 241.70 166.83 241.56 166.19 C 241.17 166.72 240.40 167.77 240.01 168.29 C 234.33 168.79 228.60 168.32 222.90 168.48 C 222.61 167.60 222.31 166.73 222.02 165.85 C 221.69 166.52 221.02 167.85 220.69 168.52 C 215.08 168.31 209.45 168.78 203.86 168.29 C 203.46 167.80 202.68 166.81 202.28 166.32 C 202.08 166.87 201.69 167.97 201.49 168.52 C 195.85 168.29 190.19 168.78 184.57 168.32 C 184.19 167.81 183.43 166.78 183.05 166.27 C 182.76 166.78 182.18 167.79 181.89 168.29 C 176.29 168.65 170.61 168.61 165.00 168.31 C 164.72 167.86 164.16 166.95 163.88 166.50 C 163.35 166.96 162.28 167.90 161.75 168.37 C 156.34 168.71 150.92 168.32 145.50 168.53 C 145.28 167.97 144.83 166.85 144.61 166.29 C 144.25 166.79 143.53 167.80 143.17 168.30 C 137.51 168.76 131.82 168.34 126.15 168.49 C 125.86 167.84 125.29 166.53 125.00 165.88 C 124.71 166.53 124.14 167.83 123.86 168.49 C 118.08 168.48 112.31 168.45 106.54 168.51 C 106.42 167.95 106.19 166.82 106.07 166.25 C 105.61 166.76 104.69 167.78 104.22 168.29 C 98.72 168.57 93.13 168.74 87.64 168.23 C 87.26 167.80 86.50 166.95 86.12 166.52 C 85.84 166.97 85.28 167.86 85.00 168.31 C 79.40 168.61 73.72 168.66 68.13 168.28 C 67.78 167.74 67.07 166.66 66.72 166.12 C 66.45 166.72 65.92 167.94 65.66 168.54 C 60.05 168.28 54.42 168.79 48.83 168.29 C 48.43 167.80 47.61 166.82 47.21 166.33 C 47.02 166.87 46.66 167.97 46.47 168.52 C 40.75 168.45 35.03 168.46 29.31 168.52 C 28.98 167.85 28.32 166.52 27.98 165.85 C 27.69 166.72 27.39 167.60 27.09 168.49 C 21.40 168.32 15.67 168.79 9.99 168.29 C 9.60 167.77 8.81 166.71 8.42 166.18 C 8.29 166.85 8.04 168.19 7.91 168.86 M 116.74 95.75 C 116.94 97.75 117.04 100.18 119.12 101.21 C 121.04 102.54 123.22 101.44 125.00 100.46 C 126.78 101.45 128.98 102.54 130.91 101.19 C 132.97 100.16 133.06 97.75 133.26 95.76 C 132.14 96.76 131.11 97.88 129.87 98.74 C 128.08 99.57 126.43 98.28 125.00 97.37 C 123.59 98.26 121.96 99.54 120.18 98.77 C 118.91 97.91 117.88 96.77 116.74 95.75 M 121.31 104.56 C 121.08 118.17 121.66 131.77 122.31 145.36 C 116.28 140.12 111.20 133.20 110.14 125.09 C 108.85 117.47 111.35 109.84 114.91 103.18 C 108.13 108.59 105.41 117.59 105.37 125.98 C 105.48 135.74 111.77 144.48 119.97 149.35 C 116.39 150.62 112.60 150.89 108.84 151.06 C 113.21 152.91 118.01 152.72 122.61 152.09 C 123.41 153.16 124.20 154.23 125.00 155.30 C 125.79 154.23 126.59 153.16 127.38 152.09 C 132.05 152.78 136.88 152.80 141.35 151.09 C 137.53 150.85 133.67 150.66 130.03 149.34 C 137.90 144.59 144.20 136.40 144.67 126.97 C 144.94 118.23 142.14 108.81 135.09 103.18 C 138.66 109.84 141.15 117.48 139.86 125.10 C 138.80 133.21 133.71 140.12 127.69 145.36 C 128.35 131.77 128.90 118.18 128.70 104.57 C 127.45 103.52 126.22 102.45 125.00 101.36 C 123.79 102.45 122.56 103.51 121.31 104.56 M 101.20 109.16 C 96.06 114.28 93.78 122.02 95.18 129.12 C 96.31 135.91 100.45 142.03 106.14 145.85 C 102.76 139.79 99.85 133.11 100.30 126.00 C 100.56 116.84 105.74 108.66 112.23 102.53 C 108.22 104.09 104.23 106.03 101.20 109.16 M 137.75 102.53 C 144.64 108.75 149.72 117.49 149.72 126.95 C 149.88 133.75 147.10 140.15 143.79 145.94 C 152.97 139.93 157.76 127.58 153.85 117.13 C 151.36 109.90 144.84 104.86 137.75 102.53 Z" />
<path fill="#ffffff" opacity="1.00" d=" M 8.38 170.24 C 10.87 170.27 13.35 170.29 15.83 170.31 C 15.83 170.88 15.82 172.02 15.81 172.59 C 13.80 172.72 11.76 172.81 9.80 173.36 L 9.76 173.64 C 9.26 172.53 8.81 171.38 8.38 170.24 Z" />
<path fill="#ffffff" opacity="1.00" d=" M 17.19 170.28 C 17.80 170.28 19.04 170.28 19.65 170.29 C 19.65 172.91 19.64 175.53 19.65 178.16 L 21.10 178.09 C 21.10 175.48 21.10 172.88 21.09 170.28 C 21.70 170.28 22.91 170.29 23.52 170.29 C 23.52 172.90 23.52 175.51 23.53 178.13 L 24.91 178.12 C 24.92 175.51 24.93 172.91 24.93 170.31 C 25.54 170.30 26.77 170.28 27.38 170.27 C 27.39 173.70 27.38 177.12 27.39 180.55 C 23.98 180.56 20.57 180.56 17.16 180.55 C 17.18 179.21 17.19 177.88 17.21 176.54 C 15.64 176.50 14.11 176.71 12.62 177.16 C 13.57 178.13 14.81 178.62 16.35 178.65 C 15.53 179.73 14.65 180.76 13.76 181.78 C 12.27 179.28 11.00 176.66 9.90 173.97 C 12.32 174.20 14.76 174.22 17.19 174.26 C 17.19 172.93 17.19 171.60 17.19 170.28 Z" />
<path fill="#ffffff" opacity="1.00" d=" M 28.81 170.28 C 37.42 170.28 46.03 170.27 54.64 170.28 C 54.59 170.86 54.51 172.00 54.47 172.57 C 45.94 173.00 37.37 172.63 28.82 172.75 C 28.82 172.13 28.82 170.90 28.81 170.28 Z" />
<path fill="#ffffff" opacity="1.00" d=" M 67.66 170.24 C 76.20 170.33 84.75 170.26 93.29 170.28 C 93.27 170.90 93.23 172.14 93.21 172.76 C 84.65 172.74 76.09 172.74 67.53 172.76 C 67.57 172.13 67.63 170.87 67.66 170.24 Z" />
<path fill="#ffffff" opacity="1.00" d=" M 102.45 170.30 C 103.06 170.29 104.28 170.27 104.89 170.26 C 104.88 173.69 104.87 177.12 104.91 180.55 C 101.52 180.56 98.12 180.56 94.73 180.55 C 94.72 179.25 94.72 177.95 94.71 176.66 C 92.90 176.65 91.09 176.66 89.29 176.67 C 89.37 177.04 89.53 177.77 89.61 178.14 C 90.52 178.13 92.35 178.12 93.27 178.11 C 93.27 178.72 93.28 179.95 93.28 180.56 C 91.17 180.56 89.05 180.55 86.94 180.54 C 86.94 178.43 86.94 176.32 86.95 174.21 C 89.49 174.20 92.04 174.20 94.59 174.23 C 94.66 172.91 94.73 171.59 94.79 170.28 C 95.38 170.28 96.56 170.28 97.14 170.28 C 97.13 173.05 97.11 175.82 97.30 178.58 C 99.93 176.81 98.04 172.91 98.59 170.27 C 99.21 170.29 100.44 170.31 101.05 170.32 C 101.05 172.92 101.06 175.52 101.09 178.12 L 102.46 178.13 C 102.46 175.52 102.46 172.91 102.45 170.30 Z" />
<path fill="#ffffff" opacity="1.00" d=" M 106.31 170.54 C 114.87 169.94 123.49 170.42 132.08 170.30 C 132.07 170.91 132.05 172.12 132.05 172.73 C 123.45 172.78 114.86 172.73 106.26 172.76 C 106.27 172.20 106.30 171.09 106.31 170.54 Z" />
<path fill="#ffffff" opacity="1.00" d=" M 133.46 170.28 C 134.07 170.28 135.29 170.29 135.90 170.29 C 135.89 172.89 135.88 175.49 135.88 178.10 L 137.32 178.14 C 137.33 175.52 137.32 172.90 137.32 170.29 C 137.94 170.29 139.18 170.29 139.80 170.29 C 139.79 172.91 139.78 175.53 139.79 178.14 L 141.29 178.10 C 141.29 175.50 141.29 172.90 141.27 170.30 C 141.89 170.29 143.14 170.29 143.76 170.28 C 143.75 173.70 143.74 177.12 143.78 180.55 C 140.33 180.57 136.89 180.57 133.45 180.55 C 133.45 179.24 133.45 177.93 133.46 176.62 C 131.50 176.64 129.55 176.68 127.60 176.83 C 128.53 178.51 130.50 177.99 132.05 178.28 C 132.05 178.85 132.06 179.98 132.06 180.54 C 129.95 180.55 127.84 180.56 125.73 180.56 C 125.73 178.44 125.73 176.32 125.73 174.21 C 128.30 174.20 130.86 174.20 133.43 174.19 C 133.44 172.89 133.45 171.58 133.46 170.28 Z" />
<path fill="#ffffff" opacity="1.00" d=" M 145.14 170.31 C 153.71 170.26 162.29 170.26 170.86 170.31 C 170.86 170.91 170.86 172.11 170.86 172.71 C 162.28 172.77 153.70 172.77 145.11 172.72 C 145.12 172.11 145.13 170.91 145.14 170.31 Z" />
<path fill="#ffffff" opacity="1.00" d=" M 172.21 170.28 C 172.84 170.29 174.08 170.29 174.70 170.29 C 174.69 172.90 174.68 175.51 174.70 178.13 L 176.14 178.11 C 176.14 175.50 176.13 172.89 176.12 170.29 C 176.73 170.29 177.96 170.29 178.57 170.29 C 178.54 173.06 178.51 175.84 178.70 178.62 C 181.23 176.75 179.60 172.98 179.98 170.33 C 180.59 170.31 181.82 170.28 182.43 170.26 C 182.44 173.69 182.42 177.12 182.44 180.55 C 179.02 180.57 175.60 180.57 172.19 180.54 C 172.21 179.25 172.23 177.95 172.25 176.66 C 170.45 176.65 168.66 176.65 166.86 176.66 L 166.90 178.08 C 168.22 178.12 169.55 178.15 170.88 178.20 C 170.87 178.78 170.85 179.96 170.84 180.54 C 168.71 180.55 166.58 180.56 164.45 180.55 C 164.45 178.44 164.46 176.32 164.45 174.21 C 167.04 174.20 169.64 174.20 172.23 174.19 C 172.22 172.89 172.22 171.59 172.21 170.28 Z" />
<path fill="#ffffff" opacity="1.00" d=" M 183.87 170.28 C 192.47 170.28 201.07 170.27 209.67 170.29 C 209.64 170.86 209.57 172.01 209.54 172.58 C 200.99 172.99 192.42 172.63 183.87 172.75 C 183.87 172.13 183.87 170.90 183.87 170.28 Z" />
<path fill="#ffffff" opacity="1.00" d=" M 222.61 170.29 C 228.93 170.27 235.26 170.28 241.58 170.28 C 241.26 171.11 240.93 171.93 240.59 172.75 C 234.59 172.75 228.60 172.76 222.60 172.74 C 222.60 172.13 222.61 170.90 222.61 170.29 Z" />
<path fill="#ffffff" opacity="1.00" d=" M 55.95 170.31 C 56.56 170.30 57.77 170.28 58.38 170.27 C 59.01 172.83 56.93 177.06 59.73 178.50 C 59.86 175.76 59.84 173.02 59.83 170.28 C 60.43 170.28 61.64 170.28 62.25 170.28 C 62.25 172.83 62.25 175.39 62.25 177.95 C 62.61 177.95 63.34 177.97 63.71 177.98 C 63.71 175.42 63.71 172.85 63.70 170.29 C 64.31 170.29 65.53 170.28 66.14 170.28 C 66.16 173.70 66.13 177.12 66.14 180.54 C 62.77 180.56 59.40 180.56 56.03 180.56 C 55.97 179.26 55.91 177.96 55.86 176.67 C 54.13 176.66 52.39 176.65 50.66 176.64 L 50.66 178.09 C 51.96 178.11 53.27 178.14 54.57 178.17 C 54.56 178.77 54.54 179.96 54.52 180.56 C 52.41 180.56 50.29 180.55 48.17 180.55 C 48.18 178.43 48.19 176.32 48.18 174.21 C 50.74 174.20 53.30 174.20 55.86 174.19 C 55.88 173.22 55.93 171.28 55.95 170.31 Z" />
<path fill="#ffffff" opacity="1.00" d=" M 210.98 170.33 C 211.59 170.31 212.82 170.28 213.43 170.26 C 213.98 172.91 212.10 176.79 214.71 178.59 C 214.90 175.82 214.88 173.05 214.88 170.28 C 215.48 170.28 216.70 170.29 217.30 170.29 C 217.29 172.84 217.29 175.40 217.29 177.96 C 217.65 177.96 218.38 177.97 218.74 177.98 C 218.75 175.41 218.75 172.85 218.75 170.28 C 219.36 170.28 220.58 170.28 221.19 170.28 C 221.19 173.70 221.16 177.11 221.18 180.53 C 217.79 180.57 214.41 180.57 211.03 180.55 C 210.98 179.25 210.94 177.96 210.91 176.67 C 209.16 176.66 207.42 176.65 205.69 176.64 L 205.71 178.09 C 207.00 178.11 208.30 178.14 209.60 178.16 C 209.60 178.76 209.58 179.95 209.58 180.55 C 207.45 180.56 205.33 180.55 203.20 180.55 C 203.22 178.43 203.22 176.32 203.22 174.21 C 205.77 174.20 208.33 174.20 210.88 174.20 C 210.91 173.23 210.96 171.29 210.98 170.33 Z" />
<path fill="#ffffff" opacity="1.00" d=" M 40.40 174.23 C 42.52 174.21 44.65 174.20 46.78 174.20 C 46.78 176.31 46.78 178.43 46.80 180.55 C 43.39 180.56 39.98 180.56 36.58 180.55 C 36.58 179.25 36.57 177.95 36.57 176.66 C 34.81 176.65 33.05 176.65 31.29 176.65 C 31.26 177.95 31.25 179.26 31.23 180.56 C 30.63 180.56 29.43 180.56 28.83 180.56 C 28.83 178.44 28.83 176.32 28.83 174.20 C 32.22 174.19 35.61 174.19 38.99 174.23 C 39.03 175.21 39.12 177.15 39.16 178.13 C 40.87 178.12 42.58 178.11 44.30 178.11 L 44.31 176.67 C 43.01 176.65 41.70 176.63 40.40 176.62 C 40.40 176.02 40.40 174.82 40.40 174.23 Z" />
<path fill="#ffffff" opacity="1.00" d=" M 67.56 174.21 C 70.97 174.20 74.38 174.19 77.78 174.21 C 77.78 175.51 77.78 176.81 77.78 178.12 C 79.56 178.12 81.33 178.12 83.11 178.12 L 83.13 176.68 C 81.80 176.65 80.48 176.63 79.15 176.60 C 79.14 176.01 79.13 174.83 79.13 174.24 C 81.27 174.21 83.40 174.20 85.55 174.20 C 85.54 176.31 85.54 178.43 85.55 180.55 C 82.12 180.56 78.70 180.56 75.27 180.55 C 75.29 179.25 75.31 177.95 75.32 176.65 C 73.59 176.65 71.86 176.66 70.12 176.66 C 70.04 177.99 69.96 179.32 69.88 180.65 C 69.30 180.61 68.14 180.54 67.56 180.51 C 67.57 178.41 67.57 176.31 67.56 174.21 Z" />
<path fill="#ffffff" opacity="1.00" d=" M 106.32 174.21 C 109.72 174.20 113.13 174.20 116.53 174.21 C 116.55 175.53 116.56 176.86 116.58 178.19 C 118.49 177.80 121.17 178.97 122.36 176.84 C 120.90 176.73 119.45 176.63 117.99 176.57 C 117.97 175.98 117.93 174.81 117.92 174.23 C 120.03 174.21 122.15 174.20 124.27 174.20 C 124.27 176.31 124.27 178.43 124.28 180.55 C 120.88 180.57 117.48 180.57 114.08 180.54 C 114.09 179.25 114.11 177.95 114.13 176.66 C 112.34 176.65 110.55 176.65 108.76 176.65 C 108.78 177.94 108.80 179.24 108.82 180.53 C 108.19 180.54 106.94 180.55 106.31 180.56 C 106.32 178.44 106.32 176.32 106.32 174.21 Z" />
<path fill="#ffffff" opacity="1.00" d=" M 145.17 174.22 C 148.51 174.20 151.85 174.20 155.20 174.19 C 155.27 175.51 155.34 176.83 155.43 178.15 C 157.09 178.13 158.76 178.12 160.43 178.11 C 160.50 177.76 160.63 177.04 160.69 176.68 C 159.37 176.66 158.05 176.64 156.73 176.62 L 156.72 174.20 C 158.83 174.20 160.95 174.21 163.06 174.22 C 163.06 176.33 163.05 178.44 163.04 180.54 C 159.63 180.57 156.22 180.58 152.81 180.51 C 152.81 179.22 152.82 177.94 152.83 176.66 C 151.06 176.65 149.30 176.65 147.54 176.66 C 147.54 177.95 147.54 179.25 147.55 180.55 C 146.95 180.55 145.76 180.55 145.16 180.55 C 145.17 178.44 145.17 176.33 145.17 174.22 Z" />
<path fill="#ffffff" opacity="1.00" d=" M 183.87 174.20 C 187.26 174.20 190.64 174.19 194.03 174.22 C 194.08 175.52 194.13 176.82 194.18 178.13 C 195.90 178.12 197.61 178.12 199.33 178.12 L 199.35 176.67 C 198.05 176.65 196.76 176.63 195.46 176.61 C 195.46 176.02 195.45 174.82 195.45 174.23 C 197.57 174.21 199.69 174.20 201.82 174.20 C 201.81 176.32 201.81 178.43 201.83 180.54 C 198.42 180.57 195.01 180.57 191.61 180.55 C 191.61 179.25 191.61 177.95 191.61 176.66 C 189.84 176.65 188.08 176.65 186.31 176.66 C 186.30 177.95 186.30 179.25 186.29 180.56 C 185.68 180.56 184.47 180.56 183.86 180.56 C 183.86 178.44 183.87 176.32 183.87 174.20 Z" />
<path fill="#ffffff" opacity="1.00" d=" M 222.62 174.20 C 226.02 174.20 229.42 174.20 232.82 174.21 C 232.81 175.58 232.81 176.96 232.81 178.34 C 234.13 178.20 235.45 178.02 236.77 177.79 C 236.90 177.57 237.14 177.13 237.27 176.90 C 236.49 176.78 234.93 176.52 234.15 176.39 C 234.16 175.86 234.17 174.80 234.18 174.27 C 236.12 174.23 238.06 174.21 240.00 174.10 C 239.10 176.29 238.11 178.44 237.03 180.55 C 234.80 180.55 232.56 180.55 230.33 180.55 C 230.34 179.25 230.34 177.95 230.35 176.65 C 228.62 176.65 226.90 176.65 225.17 176.66 C 225.08 177.99 224.98 179.31 224.89 180.64 C 224.32 180.61 223.18 180.54 222.61 180.51 C 222.61 178.40 222.61 176.30 222.62 174.20 Z" />
<path fill="#ffffff" opacity="1.00" d=" M 33.01 178.29 C 34.36 177.00 36.35 179.30 34.86 180.44 C 33.54 181.69 31.57 179.42 33.01 178.29 Z" />
<path fill="#ffffff" opacity="1.00" d=" M 71.46 178.20 C 72.07 178.18 73.30 178.14 73.91 178.12 C 73.90 178.74 73.87 179.97 73.85 180.58 C 73.27 180.57 72.10 180.55 71.52 180.54 C 71.50 179.95 71.47 178.78 71.46 178.20 Z" />
<path fill="#ffffff" opacity="1.00" d=" M 110.18 178.14 C 110.82 178.15 112.10 178.17 112.74 178.18 C 112.72 178.78 112.69 179.97 112.68 180.57 C 112.05 180.56 110.80 180.53 110.17 180.52 C 110.17 179.93 110.17 178.74 110.18 178.14 Z" />
<path fill="#ffffff" opacity="1.00" d=" M 148.93 178.12 C 149.57 178.14 150.83 178.17 151.47 178.19 C 151.45 178.77 151.42 179.92 151.40 180.50 C 150.83 180.54 149.69 180.60 149.11 180.64 C 149.07 180.01 148.98 178.75 148.93 178.12 Z" />
<path fill="#ffffff" opacity="1.00" d=" M 188.09 178.23 C 189.51 177.00 191.31 179.45 189.81 180.50 C 188.41 181.69 186.63 179.27 188.09 178.23 Z" />
<path fill="#ffffff" opacity="1.00" d=" M 226.40 178.21 C 227.04 178.19 228.32 178.15 228.96 178.13 C 228.94 178.75 228.91 179.98 228.90 180.59 C 228.30 180.58 227.09 180.55 226.49 180.53 C 226.47 179.95 226.42 178.79 226.40 178.21 Z" />
</g>
<g id="#da0000ff">
<path fill="#da0000" opacity="1.00" d=" M 116.74 95.75 C 117.88 96.77 118.91 97.91 120.18 98.77 C 121.96 99.54 123.59 98.26 125.00 97.37 C 126.43 98.28 128.08 99.57 129.87 98.74 C 131.11 97.88 132.14 96.76 133.26 95.76 C 133.06 97.75 132.97 100.16 130.91 101.19 C 128.98 102.54 126.78 101.45 125.00 100.46 C 123.22 101.44 121.04 102.54 119.12 101.21 C 117.04 100.18 116.94 97.75 116.74 95.75 Z" />
<path fill="#da0000" opacity="1.00" d=" M 121.31 104.56 C 122.56 103.51 123.79 102.45 125.00 101.36 C 126.22 102.45 127.45 103.52 128.70 104.57 C 128.90 118.18 128.35 131.77 127.69 145.36 C 133.71 140.12 138.80 133.21 139.86 125.10 C 141.15 117.48 138.66 109.84 135.09 103.18 C 142.14 108.81 144.94 118.23 144.67 126.97 C 144.20 136.40 137.90 144.59 130.03 149.34 C 133.67 150.66 137.53 150.85 141.35 151.09 C 136.88 152.80 132.05 152.78 127.38 152.09 C 126.59 153.16 125.79 154.23 125.00 155.30 C 124.20 154.23 123.41 153.16 122.61 152.09 C 118.01 152.72 113.21 152.91 108.84 151.06 C 112.60 150.89 116.39 150.62 119.97 149.35 C 111.77 144.48 105.48 135.74 105.37 125.98 C 105.41 117.59 108.13 108.59 114.91 103.18 C 111.35 109.84 108.85 117.47 110.14 125.09 C 111.20 133.20 116.28 140.12 122.31 145.36 C 121.66 131.77 121.08 118.17 121.31 104.56 Z" />
<path fill="#da0000" opacity="1.00" d=" M 101.20 109.16 C 104.23 106.03 108.22 104.09 112.23 102.53 C 105.74 108.66 100.56 116.84 100.30 126.00 C 99.85 133.11 102.76 139.79 106.14 145.85 C 100.45 142.03 96.31 135.91 95.18 129.12 C 93.78 122.02 96.06 114.28 101.20 109.16 Z" />
<path fill="#da0000" opacity="1.00" d=" M 137.75 102.53 C 144.84 104.86 151.36 109.90 153.85 117.13 C 157.76 127.58 152.97 139.93 143.79 145.94 C 147.10 140.15 149.88 133.75 149.72 126.95 C 149.72 117.49 144.64 108.75 137.75 102.53 Z" />
<path fill="#da0000" opacity="1.00" d=" M 27.09 168.49 C 27.39 167.60 27.69 166.72 27.98 165.85 C 28.32 166.52 28.98 167.85 29.31 168.52 C 35.03 168.46 40.75 168.45 46.47 168.52 C 46.66 167.97 47.02 166.87 47.21 166.33 C 47.61 166.82 48.43 167.80 48.83 168.29 C 54.42 168.79 60.05 168.28 65.66 168.54 C 65.92 167.94 66.45 166.72 66.72 166.12 C 67.07 166.66 67.78 167.74 68.13 168.28 C 73.72 168.66 79.40 168.61 85.00 168.31 C 85.28 167.86 85.84 166.97 86.12 166.52 C 86.50 166.95 87.26 167.80 87.64 168.23 C 93.13 168.74 98.72 168.57 104.22 168.29 C 104.69 167.78 105.61 166.76 106.07 166.25 C 106.19 166.82 106.42 167.95 106.54 168.51 C 112.31 168.45 118.08 168.48 123.86 168.49 C 124.14 167.83 124.71 166.53 125.00 165.88 C 125.29 166.53 125.86 167.84 126.15 168.49 C 131.82 168.34 137.51 168.76 143.17 168.30 C 143.53 167.80 144.25 166.79 144.61 166.29 C 144.83 166.85 145.28 167.97 145.50 168.53 C 150.92 168.32 156.34 168.71 161.75 168.37 C 162.28 167.90 163.35 166.96 163.88 166.50 C 164.16 166.95 164.72 167.86 165.00 168.31 C 170.61 168.61 176.29 168.65 181.89 168.29 C 182.18 167.79 182.76 166.78 183.05 166.27 C 183.43 166.78 184.19 167.81 184.57 168.32 C 190.19 168.78 195.85 168.29 201.49 168.52 C 201.69 167.97 202.08 166.87 202.28 166.32 C 202.68 166.81 203.46 167.80 203.86 168.29 C 209.45 168.78 215.08 168.31 220.69 168.52 C 221.02 167.85 221.69 166.52 222.02 165.85 C 222.31 166.73 222.61 167.60 222.90 168.48 C 228.60 168.32 234.33 168.79 240.01 168.29 C 240.40 167.77 241.17 166.72 241.56 166.19 C 241.70 166.83 241.99 168.09 242.14 168.73 C 242.00 169.12 241.72 169.89 241.58 170.28 C 235.26 170.28 228.93 170.27 222.61 170.29 C 222.61 170.90 222.60 172.13 222.60 172.74 C 228.60 172.76 234.59 172.75 240.59 172.75 L 240.00 174.10 C 238.06 174.21 236.12 174.23 234.18 174.27 C 234.17 174.80 234.16 175.86 234.15 176.39 C 234.93 176.52 236.49 176.78 237.27 176.90 C 237.14 177.13 236.90 177.57 236.77 177.79 C 235.45 178.02 234.13 178.20 232.81 178.34 C 232.81 176.96 232.81 175.58 232.82 174.21 C 229.42 174.20 226.02 174.20 222.62 174.20 C 222.61 176.30 222.61 178.40 222.61 180.51 C 223.18 180.54 224.32 180.61 224.89 180.64 C 224.98 179.31 225.08 177.99 225.17 176.66 C 226.90 176.65 228.62 176.65 230.35 176.65 C 230.34 177.95 230.34 179.25 230.33 180.55 C 232.56 180.55 234.80 180.55 237.03 180.55 C 228.90 196.89 217.17 211.43 202.88 222.80 C 181.43 240.02 154.14 249.74 126.63 250.00 L 123.35 250.00 C 106.88 249.78 90.44 246.33 75.33 239.75 C 48.96 228.33 26.52 207.59 13.76 181.78 C 14.65 180.76 15.53 179.73 16.35 178.65 C 14.81 178.62 13.57 178.13 12.62 177.16 C 14.11 176.71 15.64 176.50 17.21 176.54 C 17.19 177.88 17.18 179.21 17.16 180.55 C 20.57 180.56 23.98 180.56 27.39 180.55 C 27.38 177.12 27.39 173.70 27.38 170.27 C 26.77 170.28 25.54 170.30 24.93 170.31 C 24.93 172.91 24.92 175.51 24.91 178.12 L 23.53 178.13 C 23.52 175.51 23.52 172.90 23.52 170.29 C 22.91 170.29 21.70 170.28 21.09 170.28 C 21.10 172.88 21.10 175.48 21.10 178.09 L 19.65 178.16 C 19.64 175.53 19.65 172.91 19.65 170.29 C 19.04 170.28 17.80 170.28 17.19 170.28 C 17.19 171.60 17.19 172.93 17.19 174.26 C 14.76 174.22 12.32 174.20 9.90 173.97 L 9.76 173.64 L 9.80 173.36 C 11.76 172.81 13.80 172.72 15.81 172.59 C 15.82 172.02 15.83 170.88 15.83 170.31 C 13.35 170.29 10.87 170.27 8.38 170.24 L 7.91 168.86 C 8.04 168.19 8.29 166.85 8.42 166.18 C 8.81 166.71 9.60 167.77 9.99 168.29 C 15.67 168.79 21.40 168.32 27.09 168.49 M 28.81 170.28 C 28.82 170.90 28.82 172.13 28.82 172.75 C 37.37 172.63 45.94 173.00 54.47 172.57 C 54.51 172.00 54.59 170.86 54.64 170.28 C 46.03 170.27 37.42 170.28 28.81 170.28 M 67.66 170.24 C 67.63 170.87 67.57 172.13 67.53 172.76 C 76.09 172.74 84.65 172.74 93.21 172.76 C 93.23 172.14 93.27 170.90 93.29 170.28 C 84.75 170.26 76.20 170.33 67.66 170.24 M 102.45 170.30 C 102.46 172.91 102.46 175.52 102.46 178.13 L 101.09 178.12 C 101.06 175.52 101.05 172.92 101.05 170.32 C 100.44 170.31 99.21 170.29 98.59 170.27 C 98.04 172.91 99.93 176.81 97.30 178.58 C 97.11 175.82 97.13 173.05 97.14 170.28 C 96.56 170.28 95.38 170.28 94.79 170.28 C 94.73 171.59 94.66 172.91 94.59 174.23 C 92.04 174.20 89.49 174.20 86.95 174.21 C 86.94 176.32 86.94 178.43 86.94 180.54 C 89.05 180.55 91.17 180.56 93.28 180.56 C 93.28 179.95 93.27 178.72 93.27 178.11 C 92.35 178.12 90.52 178.13 89.61 178.14 C 89.53 177.77 89.37 177.04 89.29 176.67 C 91.09 176.66 92.90 176.65 94.71 176.66 C 94.72 177.95 94.72 179.25 94.73 180.55 C 98.12 180.56 101.52 180.56 104.91 180.55 C 104.87 177.12 104.88 173.69 104.89 170.26 C 104.28 170.27 103.06 170.29 102.45 170.30 M 106.31 170.54 C 106.30 171.09 106.27 172.20 106.26 172.76 C 114.86 172.73 123.45 172.78 132.05 172.73 C 132.05 172.12 132.07 170.91 132.08 170.30 C 123.49 170.42 114.87 169.94 106.31 170.54 M 133.46 170.28 C 133.45 171.58 133.44 172.89 133.43 174.19 C 130.86 174.20 128.30 174.20 125.73 174.21 C 125.73 176.32 125.73 178.44 125.73 180.56 C 127.84 180.56 129.95 180.55 132.06 180.54 C 132.06 179.98 132.05 178.85 132.05 178.28 C 130.50 177.99 128.53 178.51 127.60 176.83 C 129.55 176.68 131.50 176.64 133.46 176.62 C 133.45 177.93 133.45 179.24 133.45 180.55 C 136.89 180.57 140.33 180.57 143.78 180.55 C 143.74 177.12 143.75 173.70 143.76 170.28 C 143.14 170.29 141.89 170.29 141.27 170.30 C 141.29 172.90 141.29 175.50 141.29 178.10 L 139.79 178.14 C 139.78 175.53 139.79 172.91 139.80 170.29 C 139.18 170.29 137.94 170.29 137.32 170.29 C 137.32 172.90 137.33 175.52 137.32 178.14 L 135.88 178.10 C 135.88 175.49 135.89 172.89 135.90 170.29 C 135.29 170.29 134.07 170.28 133.46 170.28 M 145.14 170.31 C 145.13 170.91 145.12 172.11 145.11 172.72 C 153.70 172.77 162.28 172.77 170.86 172.71 C 170.86 172.11 170.86 170.91 170.86 170.31 C 162.29 170.26 153.71 170.26 145.14 170.31 M 172.21 170.28 C 172.22 171.59 172.22 172.89 172.23 174.19 C 169.64 174.20 167.04 174.20 164.45 174.21 C 164.46 176.32 164.45 178.44 164.45 180.55 C 166.58 180.56 168.71 180.55 170.84 180.54 C 170.85 179.96 170.87 178.78 170.88 178.20 C 169.55 178.15 168.22 178.12 166.90 178.08 L 166.86 176.66 C 168.66 176.65 170.45 176.65 172.25 176.66 C 172.23 177.95 172.21 179.25 172.19 180.54 C 175.60 180.57 179.02 180.57 182.44 180.55 C 182.42 177.12 182.44 173.69 182.43 170.26 C 181.82 170.28 180.59 170.31 179.98 170.33 C 179.60 172.98 181.23 176.75 178.70 178.62 C 178.51 175.84 178.54 173.06 178.57 170.29 C 177.96 170.29 176.73 170.29 176.12 170.29 C 176.13 172.89 176.14 175.50 176.14 178.11 L 174.70 178.13 C 174.68 175.51 174.69 172.90 174.70 170.29 C 174.08 170.29 172.84 170.29 172.21 170.28 M 183.87 170.28 C 183.87 170.90 183.87 172.13 183.87 172.75 C 192.42 172.63 200.99 172.99 209.54 172.58 C 209.57 172.01 209.64 170.86 209.67 170.29 C 201.07 170.27 192.47 170.28 183.87 170.28 M 55.95 170.31 C 55.93 171.28 55.88 173.22 55.86 174.19 C 53.30 174.20 50.74 174.20 48.18 174.21 C 48.19 176.32 48.18 178.43 48.17 180.55 C 50.29 180.55 52.41 180.56 54.52 180.56 C 54.54 179.96 54.56 178.77 54.57 178.17 C 53.27 178.14 51.96 178.11 50.66 178.09 L 50.66 176.64 C 52.39 176.65 54.13 176.66 55.86 176.67 C 55.91 177.96 55.97 179.26 56.03 180.56 C 59.40 180.56 62.77 180.56 66.14 180.54 C 66.13 177.12 66.16 173.70 66.14 170.28 C 65.53 170.28 64.31 170.29 63.70 170.29 C 63.71 172.85 63.71 175.42 63.71 177.98 C 63.34 177.97 62.61 177.95 62.25 177.95 C 62.25 175.39 62.25 172.83 62.25 170.28 C 61.64 170.28 60.43 170.28 59.83 170.28 C 59.84 173.02 59.86 175.76 59.73 178.50 C 56.93 177.06 59.01 172.83 58.38 170.27 C 57.77 170.28 56.56 170.30 55.95 170.31 M 210.98 170.33 C 210.96 171.29 210.91 173.23 210.88 174.20 C 208.33 174.20 205.77 174.20 203.22 174.21 C 203.22 176.32 203.22 178.43 203.20 180.55 C 205.33 180.55 207.45 180.56 209.58 180.55 C 209.58 179.95 209.60 178.76 209.60 178.16 C 208.30 178.14 207.00 178.11 205.71 178.09 L 205.69 176.64 C 207.42 176.65 209.16 176.66 210.91 176.67 C 210.94 177.96 210.98 179.25 211.03 180.55 C 214.41 180.57 217.79 180.57 221.18 180.53 C 221.16 177.11 221.19 173.70 221.19 170.28 C 220.58 170.28 219.36 170.28 218.75 170.28 C 218.75 172.85 218.75 175.41 218.74 177.98 C 218.38 177.97 217.65 177.96 217.29 177.96 C 217.29 175.40 217.29 172.84 217.30 170.29 C 216.70 170.29 215.48 170.28 214.88 170.28 C 214.88 173.05 214.90 175.82 214.71 178.59 C 212.10 176.79 213.98 172.91 213.43 170.26 C 212.82 170.28 211.59 170.31 210.98 170.33 M 40.40 174.23 C 40.40 174.82 40.40 176.02 40.40 176.62 C 41.70 176.63 43.01 176.65 44.31 176.67 L 44.30 178.11 C 42.58 178.11 40.87 178.12 39.16 178.13 C 39.12 177.15 39.03 175.21 38.99 174.23 C 35.61 174.19 32.22 174.19 28.83 174.20 C 28.83 176.32 28.83 178.44 28.83 180.56 C 29.43 180.56 30.63 180.56 31.23 180.56 C 31.25 179.26 31.26 177.95 31.29 176.65 C 33.05 176.65 34.81 176.65 36.57 176.66 C 36.57 177.95 36.58 179.25 36.58 180.55 C 39.98 180.56 43.39 180.56 46.80 180.55 C 46.78 178.43 46.78 176.31 46.78 174.20 C 44.65 174.20 42.52 174.21 40.40 174.23 M 67.56 174.21 C 67.57 176.31 67.57 178.41 67.56 180.51 C 68.14 180.54 69.30 180.61 69.88 180.65 C 69.96 179.32 70.04 177.99 70.12 176.66 C 71.86 176.66 73.59 176.65 75.32 176.65 C 75.31 177.95 75.29 179.25 75.27 180.55 C 78.70 180.56 82.12 180.56 85.55 180.55 C 85.54 178.43 85.54 176.31 85.55 174.20 C 83.40 174.20 81.27 174.21 79.13 174.24 C 79.13 174.83 79.14 176.01 79.15 176.60 C 80.48 176.63 81.80 176.65 83.13 176.68 L 83.11 178.12 C 81.33 178.12 79.56 178.12 77.78 178.12 C 77.78 176.81 77.78 175.51 77.78 174.21 C 74.38 174.19 70.97 174.20 67.56 174.21 M 106.32 174.21 C 106.32 176.32 106.32 178.44 106.31 180.56 C 106.94 180.55 108.19 180.54 108.82 180.53 C 108.80 179.24 108.78 177.94 108.76 176.65 C 110.55 176.65 112.34 176.65 114.13 176.66 C 114.11 177.95 114.09 179.25 114.08 180.54 C 117.48 180.57 120.88 180.57 124.28 180.55 C 124.27 178.43 124.27 176.31 124.27 174.20 C 122.15 174.20 120.03 174.21 117.92 174.23 C 117.93 174.81 117.97 175.98 117.99 176.57 C 119.45 176.63 120.90 176.73 122.36 176.84 C 121.17 178.97 118.49 177.80 116.58 178.19 C 116.56 176.86 116.55 175.53 116.53 174.21 C 113.13 174.20 109.72 174.20 106.32 174.21 M 145.17 174.22 C 145.17 176.33 145.17 178.44 145.16 180.55 C 145.76 180.55 146.95 180.55 147.55 180.55 C 147.54 179.25 147.54 177.95 147.54 176.66 C 149.30 176.65 151.06 176.65 152.83 176.66 C 152.82 177.94 152.81 179.22 152.81 180.51 C 156.22 180.58 159.63 180.57 163.04 180.54 C 163.05 178.44 163.06 176.33 163.06 174.22 C 160.95 174.21 158.83 174.20 156.72 174.20 L 156.73 176.62 C 158.05 176.64 159.37 176.66 160.69 176.68 C 160.63 177.04 160.50 177.76 160.43 178.11 C 158.76 178.12 157.09 178.13 155.43 178.15 C 155.34 176.83 155.27 175.51 155.20 174.19 C 151.85 174.20 148.51 174.20 145.17 174.22 M 183.87 174.20 C 183.87 176.32 183.86 178.44 183.86 180.56 C 184.47 180.56 185.68 180.56 186.29 180.56 C 186.30 179.25 186.30 177.95 186.31 176.66 C 188.08 176.65 189.84 176.65 191.61 176.66 C 191.61 177.95 191.61 179.25 191.61 180.55 C 195.01 180.57 198.42 180.57 201.83 180.54 C 201.81 178.43 201.81 176.32 201.82 174.20 C 199.69 174.20 197.57 174.21 195.45 174.23 C 195.45 174.82 195.46 176.02 195.46 176.61 C 196.76 176.63 198.05 176.65 199.35 176.67 L 199.33 178.12 C 197.61 178.12 195.90 178.12 194.18 178.13 C 194.13 176.82 194.08 175.52 194.03 174.22 C 190.64 174.19 187.26 174.20 183.87 174.20 M 33.01 178.29 C 31.57 179.42 33.54 181.69 34.86 180.44 C 36.35 179.30 34.36 177.00 33.01 178.29 M 71.46 178.20 C 71.47 178.78 71.50 179.95 71.52 180.54 C 72.10 180.55 73.27 180.57 73.85 180.58 C 73.87 179.97 73.90 178.74 73.91 178.12 C 73.30 178.14 72.07 178.18 71.46 178.20 M 110.18 178.14 C 110.17 178.74 110.17 179.93 110.17 180.52 C 110.80 180.53 112.05 180.56 112.68 180.57 C 112.69 179.97 112.72 178.78 112.74 178.18 C 112.10 178.17 110.82 178.15 110.18 178.14 M 148.93 178.12 C 148.98 178.75 149.07 180.01 149.11 180.64 C 149.69 180.60 150.83 180.54 151.40 180.50 C 151.42 179.92 151.45 178.77 151.47 178.19 C 150.83 178.17 149.57 178.14 148.93 178.12 M 188.09 178.23 C 186.63 179.27 188.41 181.69 189.81 180.50 C 191.31 179.45 189.51 177.00 188.09 178.23 M 226.40 178.21 C 226.42 178.79 226.47 179.95 226.49 180.53 C 227.09 180.55 228.30 180.58 228.90 180.59 C 228.91 179.98 228.94 178.75 228.96 178.13 C 228.32 178.15 227.04 178.19 226.40 178.21 Z" />
</g>
</svg>
